# xmcd CD database file
#
# Track frame offsets:
#	150
#	5945
#	18672
#	30707
#	47710
#	62937
#	73290
#	94075
#	108440
#	121792
#	133520
#	146177
#	166620
#	183227
#	202675
#	211745
#
# Disc length: 3096 seconds
#
# Revision: 1
# Processed by: cddbd v1.5.1PL0 Copyright (c) Steve Scherf et al.
# Submitted via: CDex 1.50
#
DISCID=e20c1610
DTITLE=Ol'Chaps - Old Time Country Music
DYEAR=1900
DGENRE=Country
TTITLE0=Davy
TTITLE1=Dinah
TTITLE2=Shady grove
TTITLE3=Cluck Ol' Hen
TTITLE4=To Daddy
TTITLE5=Segy
TTITLE6=Ready for the times (to get better)
TTITLE7=Kris's April
TTITLE8=The little sparrow
TTITLE9=Medley - Dixie - Yankee doddle - The girl I left behind me
TTITLE10=Sally Ann
TTITLE11=I ride an old paint
TTITLE12=900 miles to Nashville
TTITLE13=I truely understand (that you love an other man)
TTITLE14=Medley - Soldier's Joy Bottle's Dance
TTITLE15=The Cuckoo
EXTD=
EXTT0=
EXTT1=
EXTT2=
EXTT3=
EXTT4=
EXTT5=
EXTT6=
EXTT7=
EXTT8=
EXTT9=
EXTT10=
EXTT11=
EXTT12=
EXTT13=
EXTT14=
EXTT15=
PLAYORDER=
